<svg xmlns="http://www.w3.org/2000/svg" width="1200" height="630" viewBox="0 0 1200 630" role="img" aria-label="SHR7 — Free URL Shortener with Click Analytics">
  <rect width="1200" height="630" fill="#faf9f5"/>
  <rect width="1200" height="630" fill="none"/>
  <g transform="translate(96,150)">
    <g transform="translate(0,-8)">
      <rect width="96" height="96" rx="22" fill="#d97757"/>
      <g transform="translate(24,24)" fill="none" stroke="#ffffff" stroke-width="5" stroke-linecap="round" stroke-linejoin="round">
        <path d="M19 25a7 7 0 0 0 10.5.8l4.2-4.2a7 7 0 0 0-9.9-9.9l-2.4 2.4"/>
        <path d="M29 21a7 7 0 0 0-10.5-.8l-4.2 4.2a7 7 0 0 0 9.9 9.9l2.4-2.4"/>
      </g>
    </g>
    <text x="120" y="64" font-family="Georgia, 'Times New Roman', serif" font-size="72" font-weight="700" fill="#1f1e1d">SHR7</text>
  </g>
  <text x="96" y="350" font-family="Georgia, 'Times New Roman', serif" font-size="74" font-weight="700" fill="#1f1e1d">Shorten links.</text>
  <text x="96" y="436" font-family="Georgia, 'Times New Roman', serif" font-size="74" font-weight="700" fill="#c96442">Watch them work.</text>
  <text x="96" y="516" font-family="ui-sans-serif, system-ui, -apple-system, 'Segoe UI', Roboto, sans-serif" font-size="34" fill="#6b6a64">Free URL shortener with real-time click analytics</text>
</svg>
